M48
; DRILL file {KiCad 7.0.9} date Sat Dec  2 05:11:01 2023
; FORMAT={-:-/ absolute / metric / decimal}
; #@! TF.CreationDate,2023-12-02T05:11:01-05:00
; #@! TF.GenerationSoftware,Kicad,Pcbnew,7.0.9
; #@! TF.FileFunction,Plated,1,2,PTH
FMAT,2
METRIC
; #@! TA.AperFunction,Plated,PTH,ViaDrill
T1C0.400
; #@! TA.AperFunction,Plated,PTH,ComponentDrill
T2C0.750
; #@! TA.AperFunction,Plated,PTH,ComponentDrill
T3C0.900
; #@! TA.AperFunction,Plated,PTH,ComponentDrill
T4C1.000
; #@! TA.AperFunction,Plated,PTH,ComponentDrill
T5C1.270
; #@! TA.AperFunction,Plated,PTH,ComponentDrill
T6C1.500
%
G90
G05
T1
X56.103Y-90.258
X56.103Y-93.628
X56.153Y-55.888
X56.241Y-51.4
X56.623Y-71.828
X56.914Y-67.656
X57.245Y-93.081
X57.663Y-56.498
X57.743Y-104.138
X57.956Y-74.272
X58.007Y-55.476
X58.4Y-93.246
X58.703Y-75.548
X59.112Y-107.546
X59.175Y-69.408
X59.188Y-111.305
X60.331Y-86.413
X62.261Y-109.781
X62.68Y-50.155
X63.595Y-68.456
X63.633Y-98.859
X63.645Y-49.18
X63.823Y-87.353
X64.179Y-55.908
X64.674Y-104.93
X65.411Y-67.665
X66.3Y-70.97
X67.303Y-69.472
X67.989Y-86.109
X68.51Y-90.604
X69.665Y-60.557
X69.665Y-63.871
X69.678Y-79.569
X69.698Y-82.883
X69.773Y-90.708
X69.78Y-98.619
X69.78Y-101.919
X70.673Y-104.118
X71.151Y-72.253
X71.977Y-43.907
X72.574Y-108.359
X72.726Y-45.634
X72.913Y-62.068
X73.233Y-53.638
X74.225Y-55.718
X74.272Y-62.017
X74.272Y-74.514
X74.272Y-77.719
X74.542Y-39.703
X75.558Y-36.686
X75.726Y-55.718
X75.726Y-58.689
X75.726Y-74.514
X75.726Y-77.714
X75.783Y-59.738
X75.793Y-40.718
X76.353Y-96.798
X76.447Y-81.372
X76.453Y-54.758
X77.26Y-42.789
X77.298Y-61.814
X77.501Y-81.676
X77.933Y-37.93
X78.353Y-68.368
X79.7Y-109.815
X79.883Y-54.788
X80.829Y-101.78
X81.143Y-68.588
X81.253Y-75.608
X81.451Y-56.619
X81.913Y-50.278
X82.519Y-54.168
X82.593Y-48.308
X82.619Y-36.731
X82.632Y-55.718
X82.81Y-74.514
X82.913Y-73.228
X83.173Y-62.568
X83.292Y-104.27
X84.639Y-39.957
X84.639Y-106.606
X85.045Y-37.522
X85.375Y-43.297
X85.819Y-54.168
X85.909Y-106.606
X86.213Y-37.684
X86.213Y-44.186
X86.74Y-59.204
X86.852Y-80.466
X87.331Y-99.52
X87.407Y-41.367
X88.614Y-86.072
X88.614Y-89.372
X88.677Y-67.06
X88.677Y-70.36
X90.073Y-59.078
X90.455Y-91.214
X91.989Y-68.202
X92.411Y-88.496
X93.135Y-94.91
X93.579Y-87.163
X93.588Y-35.153
X93.706Y-31.829
X94.143Y-72.788
X94.303Y-37.948
X94.951Y-55.943
X95.153Y-37.328
X95.313Y-45.928
X95.637Y-39.411
X95.793Y-43.228
X96.043Y-65.028
X96.323Y-37.772
X96.323Y-75.86
X96.361Y-56.734
X96.424Y-71.024
X96.463Y-45.188
X96.483Y-33.318
X96.523Y-51.198
X96.881Y-92.725
X96.933Y-38.564
X97.327Y-49.101
X97.632Y-68.202
X98.278Y-99.367
X99.033Y-80.998
X99.193Y-96.888
X99.742Y-94.91
X100.627Y-49.101
X100.666Y-50.714
X100.932Y-68.202
X101.323Y-43.498
X101.53Y-31.867
X101.707Y-70.234
X101.883Y-38.328
X101.913Y-41.818
X102.203Y-100.93
X102.749Y-95.7
X102.953Y-37.717
X102.963Y-47.838
X103.233Y-73.608
X103.79Y-52.339
X104.044Y-89.741
X104.143Y-37.688
X104.223Y-112.118
X104.393Y-54.128
X104.913Y-47.198
X105.009Y-31.981
X105.463Y-51.478
X107.397Y-63.757
X107.523Y-112.118
X107.693Y-90.118
X107.753Y-81.068
X107.753Y-84.368
X107.753Y-94.91
X107.93Y-71.847
X108.273Y-38.798
X108.273Y-43.828
X109.105Y-70.773
X109.226Y-62.69
X109.658Y-74.348
X109.663Y-64.688
X109.924Y-76.292
X110.064Y-38.357
X110.413Y-40.078
X110.47Y-44.059
X110.523Y-52.378
X110.679Y-49.015
X111.042Y-94.033
X111.054Y-74.958
X112.443Y-57.298
X113.239Y-38.915
X113.277Y-36.744
X113.379Y-74.895
X113.393Y-40.158
X113.403Y-76.948
X113.483Y-56.01
X113.483Y-58.74
X113.793Y-60.908
X114.133Y-46.768
X114.693Y-52.868
X114.852Y-80.876
X115.093Y-69.328
X115.22Y-42.738
X115.322Y-61.75
X115.766Y-37.534
X115.973Y-49.888
X118.043Y-85.968
X119.353Y-49.898
X119.437Y-56.8
X119.563Y-68.668
X119.602Y-75.796
X120.567Y-36.756
X120.63Y-56.01
X120.745Y-74.895
X121.37Y-94.91
X121.469Y-97.744
X122.739Y-74.104
X123.488Y-102.847
X124.034Y-94.084
X124.224Y-81.232
X124.526Y-96.73
X126.726Y-48.861
X126.726Y-52.161
X126.739Y-86.097
X126.739Y-89.397
X126.763Y-93.538
X126.803Y-67.149
X126.803Y-70.449
X129.053Y-79.158
X129.063Y-81.232
X129.783Y-65.148
X129.99Y-93.335
X130.562Y-96.18
X130.713Y-61.918
X130.783Y-60.018
X131.222Y-39.23
X131.883Y-41.709
X131.921Y-80.447
X132.025Y-59.058
X132.025Y-61.166
X132.13Y-93.278
X132.492Y-98.313
X132.973Y-60.018
X133.083Y-79.068
X133.381Y-112.791
X133.737Y-45.253
X133.775Y-83.251
X133.947Y-109.541
X134.334Y-64.201
X135.452Y-56.734
X135.478Y-75.695
X135.757Y-94.694
X136.531Y-51.552
X137.543Y-70.088
X138.741Y-39.23
X138.752Y-56.734
X138.778Y-75.695
X138.983Y-71.048
X139.057Y-94.694
X139.083Y-52.538
X139.134Y-59.058
X139.642Y-77.739
X140.363Y-50.208
X140.933Y-46.088
X141.093Y-47.378
X141.839Y-40.072
X142.778Y-118.425
X142.793Y-61.358
X143.046Y-93.284
X143.071Y-80.584
X143.516Y-54.994
X143.803Y-41.948
X143.833Y-107.635
X143.909Y-100.358
X143.973Y-103.685
X144.138Y-77.739
X144.494Y-46.434
X144.621Y-50.676
X144.735Y-59.566
X144.753Y-52.138
X144.783Y-44.718
X145.703Y-49.408
X145.751Y-39.449
X145.879Y-119.553
X147.834Y-41.125
X149.06Y-68.24
X151.25Y-100.358
X151.55Y-71.796
X152.266Y-101.12
T2
X150.487Y-78.8
X150.487Y-80.8
X150.487Y-82.8
T4
X76.242Y-101.693
X76.242Y-106.693
X80.615Y-96.812
X80.615Y-111.312
X83.115Y-111.312
X85.615Y-96.812
X85.615Y-111.312
X88.601Y-38.255
X90.742Y-101.693
X90.742Y-104.193
X90.742Y-106.693
X91.37Y-34.978
X91.37Y-37.518
X91.37Y-40.058
X91.37Y-42.598
X91.37Y-45.138
X91.37Y-47.678
X91.37Y-50.218
X91.37Y-52.758
X91.37Y-55.298
X94.291Y-69.726
X96.831Y-69.726
X99.015Y-43.818
X99.371Y-69.726
X101.911Y-69.726
X104.451Y-69.726
X106.61Y-34.978
X106.61Y-37.518
X106.61Y-40.058
X106.61Y-42.598
X106.61Y-45.138
X106.61Y-47.678
X106.61Y-50.218
X106.61Y-52.758
X106.61Y-55.298
T5
X55.998Y-99.826
X55.998Y-61.826
X55.998Y-80.826
X60.998Y-101.926
X60.998Y-63.926
X60.998Y-82.926
X65.998Y-99.826
X65.998Y-61.826
X65.998Y-80.826
X74.998Y-87.326
X74.998Y-49.326
X74.998Y-68.326
X79.998Y-89.426
X79.998Y-51.426
X79.998Y-70.426
X84.998Y-87.326
X84.998Y-49.326
X84.998Y-68.326
X93.998Y-82.326
X93.998Y-44.326
X93.998Y-63.326
X98.998Y-84.426
X98.998Y-46.426
X98.998Y-65.426
X100.079Y-107.514
X103.998Y-82.326
X103.998Y-44.326
X103.998Y-63.326
X105.079Y-109.614
X110.079Y-107.514
X112.998Y-49.326
X112.998Y-68.326
X112.998Y-87.326
X117.998Y-51.426
X117.998Y-70.426
X117.998Y-89.426
X120.38Y-108.515
X122.998Y-49.326
X122.998Y-68.326
X122.998Y-87.326
X124.939Y-111.451
X130.228Y-110.251
X131.998Y-51.826
X131.998Y-70.826
X131.998Y-89.826
X136.998Y-53.926
X136.998Y-72.926
X136.998Y-91.926
X140.25Y-112.937
X141.998Y-51.826
X141.998Y-70.826
X141.998Y-89.826
X144.23Y-116.62
X149.647Y-116.357
T6
X132.01Y-42.802
X132.01Y-51.752
X132.61Y-52.652
X134.41Y-53.702
X137.01Y-53.852
X139.61Y-53.702
X141.41Y-52.652
X142.01Y-42.802
X142.01Y-51.752
T3
G00X147.54Y-51.539
M15
G01X147.54Y-51.939
M16
G05
G00X147.552Y-43.868
M15
G01X147.552Y-43.468
M16
G05
G00X147.552Y-46.868
M15
G01X147.552Y-46.468
M16
G05
G00X147.552Y-50.868
M15
G01X147.552Y-50.468
M16
G05
G00X152.14Y-43.439
M15
G01X152.14Y-43.839
M16
G05
G00X152.14Y-46.439
M15
G01X152.14Y-46.839
M16
G05
G00X152.14Y-50.439
M15
G01X152.14Y-50.839
M16
G05
G00X152.152Y-51.968
M15
G01X152.152Y-51.568
M16
G05
T4
G00X151.995Y-55.578
M15
G01X151.495Y-55.578
M16
G05
G00X151.495Y-58.118
M15
G01X151.995Y-58.118
M16
G05
G00X151.495Y-60.658
M15
G01X151.995Y-60.658
M16
G05
G00X151.495Y-63.198
M15
G01X151.995Y-63.198
M16
G05
G00X151.495Y-65.738
M15
G01X151.995Y-65.738
M16
G05
T0
M30
