M48
; DRILL file {KiCad 7.0.9} date Sat Dec  2 05:11:01 2023
; FORMAT={-:-/ absolute / metric / decimal}
; #@! TF.CreationDate,2023-12-02T05:11:01-05:00
; #@! TF.GenerationSoftware,Kicad,Pcbnew,7.0.9
; #@! TF.FileFunction,NonPlated,1,2,NPTH
FMAT,2
METRIC
; #@! TA.AperFunction,NonPlated,NPTH,ComponentDrill
T1C0.800
; #@! TA.AperFunction,NonPlated,NPTH,ComponentDrill
T2C0.991
; #@! TA.AperFunction,NonPlated,NPTH,ComponentDrill
T3C1.000
; #@! TA.AperFunction,NonPlated,NPTH,ComponentDrill
T4C1.702
; #@! TA.AperFunction,NonPlated,NPTH,ComponentDrill
T5C1.900
; #@! TA.AperFunction,NonPlated,NPTH,ComponentDrill
T6C2.200
; #@! TA.AperFunction,NonPlated,NPTH,ComponentDrill
T7C3.200
; #@! TA.AperFunction,NonPlated,NPTH,ComponentDrill
T8C3.429
; #@! TA.AperFunction,NonPlated,NPTH,ComponentDrill
T9C4.950
%
G90
G05
T1
X149.84Y-42.039
X149.84Y-49.039
X149.852Y-42.068
X149.852Y-49.068
T2
X55.778Y-91.826
X55.778Y-53.826
X55.778Y-72.826
X66.218Y-91.826
X66.218Y-53.826
X66.218Y-72.826
X74.778Y-79.326
X74.778Y-41.326
X74.778Y-60.326
X85.218Y-79.326
X85.218Y-41.326
X85.218Y-60.326
X93.778Y-74.326
X93.778Y-36.326
X93.778Y-55.326
X99.859Y-99.514
X104.218Y-74.326
X104.218Y-36.326
X104.218Y-55.326
X110.299Y-99.514
X112.778Y-41.326
X112.778Y-60.326
X112.778Y-79.326
X121.552Y-100.598
X123.218Y-41.326
X123.218Y-60.326
X123.218Y-79.326
X131.778Y-43.826
X131.778Y-62.826
X131.778Y-81.826
X131.834Y-102.411
X142.218Y-43.826
X142.218Y-62.826
X142.218Y-81.826
X142.779Y-105.344
X152.59Y-108.915
T3
X151.416Y-70.281
X151.416Y-73.281
T4
X55.498Y-96.026
X55.498Y-58.026
X55.498Y-77.026
X66.498Y-96.026
X66.498Y-58.026
X66.498Y-77.026
X74.498Y-83.526
X74.498Y-45.526
X74.498Y-64.526
X85.498Y-83.526
X85.498Y-45.526
X85.498Y-64.526
X93.498Y-78.526
X93.498Y-40.526
X93.498Y-59.526
X99.579Y-103.714
X104.498Y-78.526
X104.498Y-40.526
X104.498Y-59.526
X110.579Y-103.714
X112.498Y-45.526
X112.498Y-64.526
X112.498Y-83.526
X120.547Y-104.686
X123.498Y-45.526
X123.498Y-64.526
X123.498Y-83.526
X131.38Y-106.596
X131.498Y-48.026
X131.498Y-67.026
X131.498Y-86.026
X141.08Y-109.195
X142.498Y-48.026
X142.498Y-67.026
X142.498Y-86.026
X151.416Y-112.957
T5
X131.51Y-47.952
X142.51Y-47.952
T6
X133.91Y-53.352
X140.11Y-53.352
T7
X70.669Y-56.822
X72.955Y-94.668
X127.565Y-55.552
X138.995Y-97.716
T8
X60.998Y-96.026
X60.998Y-58.026
X60.998Y-77.026
X79.998Y-83.526
X79.998Y-45.526
X79.998Y-64.526
X98.998Y-78.526
X98.998Y-40.526
X98.998Y-59.526
X105.079Y-103.714
X117.998Y-45.526
X117.998Y-64.526
X117.998Y-83.526
X125.964Y-105.641
X136.998Y-48.026
X136.998Y-67.026
X136.998Y-86.026
X146.248Y-111.076
T9
X137.01Y-47.952
T0
M30
